<svg xmlns="http://www.w3.org/2000/svg" viewBox="0 0 980 350" role="img" aria-labelledby="title">
  <title id="title">Family Accounts</title>
  <defs>
    <linearGradient id="brandFill" x1="70" y1="54" x2="310" y2="302" gradientUnits="userSpaceOnUse">
      <stop stop-color="#006f66"/>
      <stop offset="1" stop-color="#008b80"/>
    </linearGradient>
  </defs>
  <rect x="62" y="54" width="256" height="256" rx="56" fill="url(#brandFill)"/>
  <path d="M98 178 190 106l92 72" fill="none" stroke="#fff" stroke-width="22" stroke-linecap="round" stroke-linejoin="round"/>
  <path d="M250 132v34" fill="none" stroke="#fff" stroke-width="22" stroke-linecap="round"/>
  <circle cx="142" cy="214" r="20" fill="#fff"/>
  <path d="M98 282c8-36 26-54 52-54 18 0 32 9 42 26" fill="#fff"/>
  <circle cx="238" cy="214" r="20" fill="#fff"/>
  <path d="M188 254c10-17 24-26 42-26 26 0 44 18 52 54" fill="#fff"/>
  <circle cx="190" cy="234" r="17" fill="#fff"/>
  <circle cx="190" cy="282" r="43" fill="#fff"/>
  <text x="190" y="310" text-anchor="middle" font-family="Segoe UI, Arial, sans-serif" font-size="78" font-weight="900" fill="#00796f">&#8364;</text>
  <text x="365" y="166" font-family="Segoe UI, Arial, sans-serif" font-size="126" font-weight="900" fill="#00796f">Family</text>
  <text x="365" y="286" font-family="Segoe UI, Arial, sans-serif" font-size="104" font-weight="500" fill="#00796f">Accounts</text>
</svg>
